{"glyphs":{"0":{"ha":705,"x_min":68,"x_max":637,"o":"m 220 0 l 68 152 l 68 798 l 220 949 l 486 949 l 637 798 l 637 152 l 486 0 l 220 0 m 258 190 l 448 190 l 448 760 l 258 760 l 258 190 z "},"1":{"ha":705,"x_min":163,"x_max":543,"o":"m 163 0 l 163 190 l 258 190 l 258 665 l 163 665 l 163 808 l 258 949 l 448 949 l 448 190 l 543 190 l 543 0 l 163 0 z "},"2":{"ha":705,"x_min":68,"x_max":637,"o":"m 68 0 l 68 418 l 220 570 l 448 570 l 448 760 l 258 760 l 258 665 l 68 665 l 68 798 l 220 949 l 486 949 l 637 798 l 637 532 l 486 380 l 258 380 l 258 190 l 448 190 l 448 285 l 637 285 l 637 0 l 68 0 z "},"3":{"ha":705,"x_min":68,"x_max":637,"o":"m 68 665 l 68 798 l 220 949 l 486 949 l 637 798 l 637 532 l 581 475 l 637 418 l 637 152 l 486 0 l 220 0 l 68 152 l 68 285 l 258 285 l 258 190 l 448 190 l 448 380 l 353 380 l 353 570 l 448 570 l 448 760 l 258 760 l 258 665 l 68 665 z "},"4":{"ha":705,"x_min":68,"x_max":637,"o":"m 258 0 l 258 190 l 353 190 l 353 285 l 68 285 l 68 475 l 353 949 l 543 949 l 543 475 l 637 475 l 637 285 l 543 285 l 543 190 l 637 190 l 637 0 l 258 0 m 271 475 l 353 475 l 353 610 l 271 475 z "},"5":{"ha":705,"x_min":68,"x_max":637,"o":"m 68 949 l 637 949 l 637 760 l 258 760 l 258 570 l 486 570 l 637 418 l 637 152 l 486 0 l 220 0 l 68 152 l 68 285 l 258 285 l 258 190 l 448 190 l 448 380 l 220 380 l 68 532 l 68 949 z "},"6":{"ha":705,"x_min":68,"x_max":637,"o":"m 637 665 l 448 665 l 448 760 l 258 760 l 258 570 l 486 570 l 637 418 l 637 152 l 486 0 l 220 0 l 68 152 l 68 798 l 220 949 l 486 949 l 637 798 l 637 665 m 258 190 l 448 190 l 448 380 l 258 380 l 258 190 z "},"7":{"ha":705,"x_min":68,"x_max":637,"o":"m 68 0 l 68 190 l 163 190 l 448 760 l 258 760 l 258 665 l 68 665 l 68 949 l 637 949 l 637 760 l 353 190 l 448 190 l 448 0 l 68 0 z "},"8":{"ha":705,"x_min":68,"x_max":637,"o":"m 637 532 l 581 475 l 637 418 l 637 152 l 486 0 l 220 0 l 68 152 l 68 418 l 125 475 l 68 532 l 68 798 l 220 949 l 486 949 l 637 798 l 637 532 m 258 570 l 448 570 l 448 760 l 258 760 l 258 570 m 258 190 l 448 190 l 448 380 l 258 380 l 258 190 z "},"9":{"ha":705,"x_min":68,"x_max":637,"o":"m 68 285 l 258 285 l 258 190 l 448 190 l 448 380 l 220 380 l 68 532 l 68 798 l 220 949 l 486 949 l 637 798 l 637 152 l 486 0 l 220 0 l 68 152 l 68 285 m 448 760 l 244 760 l 244 570 l 448 570 l 448 760 z "},"%":{"ha":1042,"x_min":174,"x_max":868,"o":"m 174 0 l 174 868 l 868 868 l 868 0 l 174 0 m 846 22 l 846 846 l 195 846 l 195 22 l 846 22 z "},"!":{"ha":326,"x_min":68,"x_max":258,"o":"m 68 0 l 68 190 l 258 190 l 258 0 l 68 0 m 109 380 l 68 665 l 68 949 l 258 949 l 258 665 l 217 380 l 109 380 z "},"\"":{"ha":597,"x_min":68,"x_max":529,"o":"m 339 760 l 339 949 l 529 949 l 529 760 l 434 570 l 339 570 l 434 760 l 339 760 m 68 760 l 68 949 l 258 949 l 258 760 l 163 570 l 68 570 l 163 760 l 68 760 z "},"#":{"ha":895,"x_min":68,"x_max":827,"o":"m 163 0 l 163 190 l 68 190 l 68 380 l 163 380 l 163 570 l 68 570 l 68 760 l 163 760 l 163 949 l 353 949 l 353 760 l 543 760 l 543 949 l 732 949 l 732 760 l 827 760 l 827 570 l 732 570 l 732 380 l 827 380 l 827 190 l 732 190 l 732 0 l 543 0 l 543 190 l 353 190 l 353 0 l 163 0 m 353 380 l 543 380 l 543 570 l 353 570 l 353 380 z "},"$":{"ha":705,"x_min":68,"x_max":637,"o":"m 258 -190 l 258 0 l 220 0 l 68 152 l 68 285 l 258 285 l 258 190 l 448 190 l 448 380 l 220 380 l 68 532 l 68 798 l 220 949 l 258 949 l 258 1139 l 448 1139 l 448 949 l 486 949 l 637 798 l 637 665 l 448 665 l 448 760 l 258 760 l 258 570 l 486 570 l 637 418 l 637 152 l 486 0 l 448 0 l 448 -190 l 258 -190 z "},"'":{"ha":326,"x_min":68,"x_max":258,"o":"m 68 760 l 68 949 l 258 949 l 258 760 l 163 570 l 68 570 l 163 760 l 68 760 z "},"+":{"ha":705,"x_min":68,"x_max":637,"o":"m 258 190 l 258 380 l 68 380 l 68 570 l 258 570 l 258 760 l 448 760 l 448 570 l 637 570 l 637 380 l 448 380 l 448 190 l 258 190 z "},",":{"ha":326,"x_min":68,"x_max":258,"o":"m 68 0 l 68 190 l 258 190 l 258 0 l 163 -190 l 68 -190 l 163 0 l 68 0 z "},"-":{"ha":705,"x_min":68,"x_max":637,"o":"m 68 380 l 68 570 l 637 570 l 637 380 l 68 380 z "},".":{"ha":326,"x_min":68,"x_max":258,"o":"m 68 0 l 68 190 l 258 190 l 258 0 l 68 0 z "},":":{"ha":326,"x_min":68,"x_max":258,"o":"m 68 570 l 68 760 l 258 760 l 258 570 l 68 570 m 68 0 l 68 190 l 258 190 l 258 0 l 68 0 z "},";":{"ha":326,"x_min":68,"x_max":258,"o":"m 68 0 l 68 190 l 258 190 l 258 0 l 163 -190 l 68 -190 l 163 0 l 68 0 m 68 570 l 68 760 l 258 760 l 258 570 l 68 570 z "},"=":{"ha":705,"x_min":68,"x_max":637,"o":"m 68 570 l 68 760 l 637 760 l 637 570 l 68 570 m 68 190 l 68 380 l 637 380 l 637 190 l 68 190 z "},"?":{"ha":705,"x_min":68,"x_max":637,"o":"m 68 665 l 68 798 l 220 949 l 486 949 l 637 798 l 637 532 l 486 380 l 448 380 l 448 285 l 258 285 l 258 418 l 410 570 l 448 570 l 448 760 l 258 760 l 258 665 l 68 665 m 258 190 l 448 190 l 448 0 l 258 0 l 258 190 z "},"A":{"ha":895,"x_min":68,"x_max":827,"o":"m 68 0 l 68 190 l 163 190 l 353 949 l 543 949 l 732 190 l 827 190 l 827 0 l 461 0 l 461 190 l 543 190 l 519 285 l 376 285 l 353 190 l 434 190 l 434 0 l 68 0 m 448 570 l 424 475 l 471 475 l 448 570 z "},"B":{"ha":800,"x_min":68,"x_max":732,"o":"m 68 0 l 68 190 l 163 190 l 163 760 l 68 760 l 68 949 l 581 949 l 732 798 l 732 532 l 637 475 l 732 418 l 732 152 l 581 0 l 68 0 m 353 570 l 543 570 l 543 760 l 353 760 l 353 570 m 353 190 l 543 190 l 543 380 l 353 380 l 353 190 z "},"C":{"ha":705,"x_min":68,"x_max":637,"o":"m 220 0 l 68 152 l 68 798 l 220 949 l 486 949 l 637 798 l 637 665 l 448 665 l 448 760 l 258 760 l 258 190 l 448 190 l 448 285 l 637 285 l 637 152 l 486 0 l 220 0 z "},"D":{"ha":800,"x_min":68,"x_max":732,"o":"m 68 0 l 68 190 l 163 190 l 163 760 l 68 760 l 68 949 l 581 949 l 732 798 l 732 152 l 581 0 l 68 0 m 353 190 l 543 190 l 543 760 l 353 760 l 353 190 z "},"E":{"ha":800,"x_min":68,"x_max":732,"o":"m 68 0 l 68 190 l 163 190 l 163 760 l 68 760 l 68 949 l 732 949 l 732 665 l 543 665 l 543 760 l 353 760 l 353 570 l 543 570 l 543 380 l 353 380 l 353 190 l 543 190 l 543 285 l 732 285 l 732 0 l 68 0 z "},"F":{"ha":800,"x_min":68,"x_max":732,"o":"m 68 0 l 68 190 l 163 190 l 163 760 l 68 760 l 68 949 l 732 949 l 732 665 l 543 665 l 543 760 l 353 760 l 353 570 l 543 570 l 543 380 l 353 380 l 353 190 l 448 190 l 448 0 l 68 0 z "},"G":{"ha":705,"x_min":68,"x_max":637,"o":"m 220 0 l 68 152 l 68 798 l 220 949 l 486 949 l 637 798 l 637 665 l 448 665 l 448 760 l 258 760 l 258 190 l 448 190 l 448 380 l 353 380 l 353 570 l 637 570 l 637 152 l 486 0 l 220 0 z "},"H":{"ha":895,"x_min":68,"x_max":827,"o":"m 68 0 l 68 190 l 163 190 l 163 760 l 68 760 l 68 949 l 434 949 l 434 760 l 353 760 l 353 570 l 543 570 l 543 760 l 461 760 l 461 949 l 827 949 l 827 760 l 732 760 l 732 190 l 827 190 l 827 0 l 461 0 l 461 190 l 543 190 l 543 380 l 353 380 l 353 190 l 434 190 l 434 0 l 68 0 z "},"I":{"ha":502,"x_min":68,"x_max":434,"o":"m 68 0 l 68 190 l 163 190 l 163 760 l 68 760 l 68 949 l 434 949 l 434 760 l 353 760 l 353 190 l 434 190 l 434 0 l 68 0 z "},"J":{"ha":800,"x_min":68,"x_max":732,"o":"m 258 285 l 258 190 l 448 190 l 448 760 l 353 760 l 353 949 l 732 949 l 732 760 l 637 760 l 637 152 l 486 0 l 220 0 l 68 152 l 68 285 l 258 285 z "},"K":{"ha":868,"x_min":68,"x_max":827,"o":"m 68 0 l 68 190 l 163 190 l 163 760 l 68 760 l 68 949 l 434 949 l 434 760 l 353 760 l 353 507 l 543 760 l 461 760 l 461 949 l 827 949 l 827 760 l 751 760 l 532 477 l 751 190 l 827 190 l 827 0 l 461 0 l 461 190 l 532 190 l 410 347 l 353 271 l 353 190 l 434 190 l 434 0 l 68 0 z "},"L":{"ha":800,"x_min":68,"x_max":732,"o":"m 68 0 l 68 190 l 163 190 l 163 760 l 68 760 l 68 949 l 448 949 l 448 760 l 353 760 l 353 190 l 543 190 l 543 285 l 732 285 l 732 0 l 68 0 z "},"M":{"ha":1072,"x_min":68,"x_max":1004,"o":"m 68 0 l 68 190 l 163 190 l 163 760 l 68 760 l 68 949 l 353 949 l 543 488 l 732 949 l 1004 949 l 1004 760 l 909 760 l 909 190 l 1004 190 l 1004 0 l 637 0 l 637 190 l 732 190 l 732 461 l 545 -5 l 353 461 l 353 190 l 445 190 l 445 0 l 68 0 z "},"N":{"ha":990,"x_min":68,"x_max":922,"o":"m 68 0 l 68 190 l 163 190 l 163 760 l 68 760 l 68 949 l 353 949 l 637 407 l 637 760 l 543 760 l 543 949 l 922 949 l 922 760 l 827 760 l 827 0 l 637 0 l 353 543 l 353 190 l 448 190 l 448 0 l 68 0 z "},"O":{"ha":705,"x_min":68,"x_max":637,"o":"m 220 0 l 68 152 l 68 798 l 220 949 l 486 949 l 637 798 l 637 152 l 486 0 l 220 0 m 258 190 l 448 190 l 448 760 l 258 760 l 258 190 z "},"P":{"ha":800,"x_min":68,"x_max":732,"o":"m 68 0 l 68 190 l 163 190 l 163 760 l 68 760 l 68 949 l 581 949 l 732 798 l 732 532 l 581 380 l 353 380 l 353 190 l 448 190 l 448 0 l 68 0 m 353 570 l 543 570 l 543 760 l 353 760 l 353 570 z "},"Q":{"ha":705,"x_min":68,"x_max":637,"o":"m 220 0 l 68 152 l 68 798 l 220 949 l 486 949 l 637 798 l 637 152 l 486 0 l 448 0 l 448 -190 l 258 -190 l 258 0 l 220 0 m 258 190 l 448 190 l 448 760 l 258 760 l 258 190 z "},"R":{"ha":895,"x_min":68,"x_max":827,"o":"m 68 0 l 68 190 l 163 190 l 163 760 l 68 760 l 68 949 l 581 949 l 732 798 l 732 532 l 675 475 l 732 418 l 732 190 l 827 190 l 827 0 l 461 0 l 461 190 l 543 190 l 543 380 l 353 380 l 353 190 l 434 190 l 434 0 l 68 0 m 353 570 l 543 570 l 543 760 l 353 760 l 353 570 z "},"S":{"ha":705,"x_min":68,"x_max":637,"o":"m 68 285 l 258 285 l 258 190 l 448 190 l 448 380 l 220 380 l 68 532 l 68 798 l 220 949 l 486 949 l 637 798 l 637 665 l 448 665 l 448 760 l 258 760 l 258 570 l 483 570 l 637 418 l 637 152 l 486 0 l 220 0 l 68 152 l 68 285 z "},"T":{"ha":895,"x_min":68,"x_max":827,"o":"m 258 0 l 258 190 l 353 190 l 353 760 l 258 760 l 258 665 l 68 665 l 68 949 l 827 949 l 827 665 l 637 665 l 637 760 l 543 760 l 543 190 l 637 190 l 637 0 l 258 0 z "},"U":{"ha":895,"x_min":68,"x_max":827,"o":"m 68 949 l 434 949 l 434 760 l 353 760 l 353 190 l 543 190 l 543 760 l 461 760 l 461 949 l 827 949 l 827 760 l 732 760 l 732 152 l 581 0 l 315 0 l 163 152 l 163 760 l 68 760 l 68 949 z "},"V":{"ha":895,"x_min":68,"x_max":827,"o":"m 68 949 l 434 949 l 434 760 l 353 760 l 448 380 l 543 760 l 461 760 l 461 949 l 827 949 l 827 760 l 732 760 l 543 0 l 353 0 l 163 760 l 68 760 l 68 949 z "},"W":{"ha":1085,"x_min":68,"x_max":1017,"o":"m 68 760 l 68 949 l 448 949 l 448 760 l 353 760 l 401 475 l 543 760 l 684 475 l 732 760 l 637 760 l 637 949 l 1017 949 l 1017 760 l 922 760 l 827 190 l 922 190 l 922 0 l 556 0 l 556 190 l 637 190 l 543 380 l 448 190 l 529 190 l 529 0 l 163 0 l 163 190 l 258 190 l 163 760 l 68 760 z "},"X":{"ha":895,"x_min":68,"x_max":827,"o":"m 68 760 l 68 949 l 434 949 l 434 760 l 353 760 l 448 617 l 543 760 l 461 760 l 461 949 l 827 949 l 827 760 l 732 760 l 543 475 l 732 190 l 827 190 l 827 0 l 461 0 l 461 190 l 543 190 l 448 332 l 353 190 l 434 190 l 434 0 l 68 0 l 68 190 l 163 190 l 353 475 l 163 760 l 68 760 z "},"Y":{"ha":895,"x_min":68,"x_max":827,"o":"m 68 760 l 68 949 l 434 949 l 434 760 l 353 760 l 448 617 l 543 760 l 461 760 l 461 949 l 827 949 l 827 760 l 732 760 l 543 475 l 543 190 l 637 190 l 637 0 l 258 0 l 258 190 l 353 190 l 353 475 l 163 760 l 68 760 z "},"Z":{"ha":800,"x_min":68,"x_max":732,"o":"m 68 665 l 68 949 l 732 949 l 732 760 l 298 190 l 543 190 l 543 285 l 732 285 l 732 0 l 68 0 l 68 190 l 502 760 l 258 760 l 258 665 l 68 665 z "},"a":{"ha":800,"x_min":68,"x_max":732,"o":"m 68 0 l 305 949 l 495 949 l 732 0 l 543 0 l 495 190 l 305 190 l 258 0 l 68 0 m 400 570 l 353 380 l 448 380 l 400 570 z "},"b":{"ha":705,"x_min":68,"x_max":637,"o":"m 68 0 l 68 949 l 486 949 l 637 798 l 637 532 l 581 475 l 637 418 l 637 152 l 486 0 l 68 0 m 258 570 l 448 570 l 448 760 l 258 760 l 258 570 m 258 190 l 448 190 l 448 380 l 258 380 l 258 190 z "},"d":{"ha":705,"x_min":68,"x_max":637,"o":"m 68 0 l 68 949 l 486 949 l 637 798 l 637 152 l 486 0 l 68 0 m 258 190 l 448 190 l 448 760 l 258 760 l 258 190 z "},"e":{"ha":705,"x_min":68,"x_max":637,"o":"m 68 0 l 68 949 l 637 949 l 637 760 l 258 760 l 258 570 l 543 570 l 543 380 l 258 380 l 258 190 l 637 190 l 637 0 l 68 0 z "},"f":{"ha":705,"x_min":68,"x_max":637,"o":"m 68 0 l 68 949 l 637 949 l 637 760 l 258 760 l 258 570 l 543 570 l 543 380 l 258 380 l 258 0 l 68 0 z "},"h":{"ha":705,"x_min":68,"x_max":637,"o":"m 68 0 l 68 949 l 258 949 l 258 570 l 448 570 l 448 949 l 637 949 l 637 0 l 448 0 l 448 380 l 258 380 l 258 0 l 68 0 z "},"i":{"ha":326,"x_min":68,"x_max":258,"o":"m 68 0 l 68 949 l 258 949 l 258 0 l 68 0 z "},"j":{"ha":705,"x_min":68,"x_max":637,"o":"m 258 285 l 258 190 l 448 190 l 448 949 l 637 949 l 637 152 l 486 0 l 220 0 l 68 152 l 68 285 l 258 285 z "},"k":{"ha":800,"x_min":68,"x_max":732,"o":"m 68 0 l 68 949 l 258 949 l 258 572 l 543 949 l 732 949 l 437 564 l 732 0 l 543 0 l 334 437 l 258 339 l 258 0 l 68 0 z "},"l":{"ha":705,"x_min":68,"x_max":637,"o":"m 68 0 l 68 949 l 258 949 l 258 190 l 637 190 l 637 0 l 68 0 z "},"m":{"ha":882,"x_min":68,"x_max":827,"o":"m 68 0 l 68 949 l 258 949 l 441 502 l 637 949 l 827 949 l 827 0 l 637 0 l 637 448 l 441 0 l 258 445 l 258 0 l 68 0 z "},"n":{"ha":800,"x_min":68,"x_max":732,"o":"m 68 0 l 68 949 l 258 949 l 543 407 l 543 949 l 732 949 l 732 0 l 543 0 l 258 543 l 258 0 l 68 0 z "},"p":{"ha":705,"x_min":68,"x_max":637,"o":"m 68 0 l 68 949 l 486 949 l 637 798 l 637 532 l 486 380 l 258 380 l 258 0 l 68 0 m 258 572 l 448 572 l 448 760 l 258 760 l 258 572 z "},"r":{"ha":705,"x_min":68,"x_max":637,"o":"m 68 0 l 68 949 l 486 949 l 637 798 l 637 532 l 581 475 l 637 418 l 637 0 l 448 0 l 448 380 l 258 380 l 258 0 l 68 0 m 258 570 l 448 570 l 448 760 l 258 760 l 258 570 z "},"t":{"ha":895,"x_min":68,"x_max":827,"o":"m 353 0 l 353 760 l 68 760 l 68 949 l 827 949 l 827 760 l 543 760 l 543 0 l 353 0 z "},"u":{"ha":705,"x_min":68,"x_max":637,"o":"m 68 949 l 258 949 l 258 190 l 448 190 l 448 949 l 637 949 l 637 152 l 486 0 l 220 0 l 68 152 l 68 949 z "},"v":{"ha":800,"x_min":68,"x_max":732,"o":"m 68 949 l 258 949 l 400 380 l 543 949 l 732 949 l 495 0 l 305 0 l 68 949 z "},"w":{"ha":1085,"x_min":68,"x_max":1017,"o":"m 68 949 l 258 949 l 372 448 l 448 760 l 637 760 l 713 448 l 827 949 l 1017 949 l 806 0 l 616 0 l 543 331 l 469 0 l 279 0 l 68 949 z "},"x":{"ha":895,"x_min":68,"x_max":827,"o":"m 68 949 l 258 949 l 448 633 l 637 949 l 827 949 l 543 475 l 827 0 l 637 0 l 448 317 l 258 0 l 68 0 l 353 475 l 68 949 z "},"y":{"ha":895,"x_min":68,"x_max":827,"o":"m 68 949 l 258 949 l 448 633 l 637 949 l 827 949 l 543 475 l 543 0 l 353 0 l 353 475 l 68 949 z "},"z":{"ha":705,"x_min":68,"x_max":637,"o":"m 68 760 l 68 949 l 637 949 l 637 760 l 285 190 l 637 190 l 637 0 l 68 0 l 68 190 l 420 760 l 68 760 z "}," ":{"ha":570,"x_min":0,"x_max":0,"o":""},"c":{"ha":705,"x_min":68,"x_max":637,"o":"m 220 0 l 68 152 l 68 798 l 220 949 l 486 949 l 637 798 l 637 665 l 448 665 l 448 760 l 258 760 l 258 190 l 448 190 l 448 285 l 637 285 l 637 152 l 486 0 l 220 0 z "},"g":{"ha":705,"x_min":68,"x_max":637,"o":"m 220 0 l 68 152 l 68 798 l 220 949 l 486 949 l 637 798 l 637 665 l 448 665 l 448 760 l 258 760 l 258 190 l 448 190 l 448 380 l 353 380 l 353 570 l 637 570 l 637 152 l 486 0 l 220 0 z "},"o":{"ha":705,"x_min":68,"x_max":637,"o":"m 220 0 l 68 152 l 68 798 l 220 949 l 486 949 l 637 798 l 637 152 l 486 0 l 220 0 m 258 190 l 448 190 l 448 760 l 258 760 l 258 190 z "},"q":{"ha":705,"x_min":68,"x_max":637,"o":"m 220 0 l 68 152 l 68 798 l 220 949 l 486 949 l 637 798 l 637 152 l 486 0 l 448 0 l 448 -190 l 258 -190 l 258 0 l 220 0 m 258 190 l 448 190 l 448 760 l 258 760 l 258 190 z "},"s":{"ha":705,"x_min":68,"x_max":637,"o":"m 68 285 l 258 285 l 258 190 l 448 190 l 448 380 l 220 380 l 68 532 l 68 798 l 220 949 l 486 949 l 637 798 l 637 665 l 448 665 l 448 760 l 258 760 l 258 570 l 483 570 l 637 418 l 637 152 l 486 0 l 220 0 l 68 152 l 68 285 z "}}}
